<svg fill="#5c8dcb" width="189" xmlns="http://www.w3.org/2000/svg" height="19" viewBox="0 0 96 96" xmlns:xlink="http://www.w3.org/1999/xlink">
<path d="m78.102,50.301l-12.27-12.27h7.188c-.066-.18-.135-.357-.204-.534-4.263-10.806-14.799-18.45-27.12-18.45-16.095,0-29.145,13.05-29.145,29.145 0,16.098 13.05,29.148 29.145,29.148 11.841,0 22.032-7.062 26.592-17.199 .045-.093 .072-.198 .114-.297l7.815,7.767c-.051,.09-.087,.192-.141,.288-.012,.021-.024,.042-.036,.06-6.897,11.916-19.782,19.929-34.539,19.929-22.02-.006-39.876-17.862-39.876-39.888s17.856-39.882 39.882-39.882c18.414,0 33.909,12.474 38.499,29.436 .045,.156 .057,.321 .096,.477h6.273l-12.273,12.27z"/>
</svg>
